<?xml version="1.0" encoding="utf-8"?>
<!-- Generator: Adobe Illustrator 16.0.0, SVG Export Plug-In . SVG Version: 6.00 Build 0)  -->
<!DOCTYPE svg PUBLIC "-//W3C//DTD SVG 1.1//EN" "http://www.w3.org/Graphics/SVG/1.1/DTD/svg11.dtd">
<svg version="1.1" id="Layer_1" xmlns="http://www.w3.org/2000/svg" xmlns:xlink="http://www.w3.org/1999/xlink" x="0px" y="0px"
	 width="250px" height="99px" viewBox="0 0 250 99" enable-background="new 0 0 250 99" xml:space="preserve">
<g>
	<g>
		<path fill="#6B6B6B" d="M86.13,11.643l-3.764,16.725h-3.058l-3.082-10.813l-3.025,10.813h-3.023l-3.786-16.725h3.147l2.399,10.677
			l2.991-10.677h2.649l3.023,10.677l2.378-10.677H86.13z"/>
		<path fill="#6B6B6B" d="M99.625,28.367h-9.13V11.643h9.13v3.105h-5.958v3.045h5.958v3.05h-5.958v4.407h5.958V28.367z"/>
		<path fill="#6B6B6B" d="M117.736,20.237c0,2.641-0.805,4.721-2.411,6.244c-0.917,0.854-2.008,1.414-3.274,1.672
			c-0.744,0.144-1.993,0.214-3.752,0.214h-3.832V11.643h3.775c2.093,0,3.7,0.216,4.822,0.647c1.472,0.57,2.645,1.634,3.524,3.195
			C117.352,16.843,117.736,18.425,117.736,20.237z M114.528,20.158c0-3.64-1.932-5.455-5.798-5.455h-1.08v10.561h1.48
			c1.233,0,2.157-0.113,2.772-0.343c0.847-0.315,1.517-0.935,2.001-1.845C114.321,22.286,114.528,21.313,114.528,20.158z"/>
		<path fill="#6B6B6B" d="M135.902,20.237c0,2.641-0.803,4.721-2.41,6.244c-0.916,0.854-2.008,1.414-3.275,1.672
			c-0.742,0.144-1.992,0.214-3.753,0.214h-3.831V11.643h3.776c2.092,0,3.7,0.216,4.82,0.647c1.47,0.57,2.645,1.634,3.524,3.195
			C135.521,16.843,135.902,18.425,135.902,20.237z M132.696,20.158c0-3.64-1.933-5.455-5.801-5.455h-1.077v10.561h1.477
			c1.236,0,2.161-0.113,2.775-0.343c0.85-0.315,1.518-0.935,2.002-1.845C132.487,22.286,132.696,21.313,132.696,20.158z"/>
		<path fill="#6B6B6B" d="M143.734,28.367h-3.172V11.643h3.172V28.367z"/>
		<path fill="#6B6B6B" d="M162.585,28.367h-3.059l-7.162-10.973v10.973h-3.185V11.643h3.048l7.175,11.006V11.643h3.183V28.367z"/>
		<path fill="#6B6B6B" d="M184.893,20.601c0.047,1.386-0.335,2.772-1.136,4.156c-1.556,2.688-3.949,4.031-7.187,4.031
			c-1.698,0-3.219-0.359-4.561-1.08c-1.395-0.749-2.498-1.843-3.309-3.273c-0.795-1.393-1.194-2.899-1.194-4.513
			c0-2.215,0.732-4.141,2.195-5.778c1.735-1.947,3.995-2.923,6.775-2.923c2.874,0,5.281,1.051,7.22,3.15l-2.24,2.218
			c-1.416-1.51-3.064-2.263-4.948-2.263c-1.612,0-2.979,0.532-4.103,1.597c-1.143,1.077-1.714,2.421-1.714,4.03
			c0,1.663,0.587,3.05,1.764,4.158c1.153,1.096,2.565,1.641,4.237,1.641c2.178,0,3.711-0.96,4.605-2.874h-4.843v-2.979h8.415
			L184.893,20.601z"/>
	</g>
	<g>
		<g>
			<path fill="#6B6B6B" d="M79.345,76.87h-0.159c-0.058,0-0.103-0.01-0.137-0.026c0.005-0.011,0.014-0.023,0.016-0.036
				c0.119-0.032,0.203-0.138,0.203-0.268c0-0.083-0.036-0.158-0.097-0.211c-0.066-0.081-0.167-0.132-0.264-0.115
				c-1.414-0.565-2.554-0.896-3.417-0.981l-5.909-0.051l-26.316,3.854c-1.029,0.037-1.848,0.124-2.44,0.262l-0.97-0.099
				l2.036-21.845l-0.001-2.461l0.819-9.936c0.01-0.116-0.054-0.228-0.16-0.276c-0.243-0.113-0.522-0.336-0.82-0.654
				c-0.029-0.362-0.18-0.926-0.462-1.723c-0.009-0.026-0.023-0.052-0.039-0.071c-0.224-0.308-0.373-0.57-0.43-0.78
				c-0.024-0.086-0.082-0.148-0.156-0.183c-0.06-0.026-0.289-0.161-1.067-0.829c-0.42-0.358-0.897-0.543-1.424-0.543
				c-0.07,0-0.134,0.025-0.181,0.068c-0.072,0.028-0.316,0.121-1.139,0.367c-0.05,0.015-0.093,0.042-0.129,0.079
				c-1.014,1.1-1.789,1.977-2.306,2.601c-0.035,0.037-0.056,0.085-0.063,0.135c-0.354,2.308-0.581,3.806-0.688,4.5
				c-0.387,3.124-0.644,5.582-0.769,7.309c0,0.036,0.003,0.07,0.015,0.102c0,0.015,0.012,0.051,0.012,0.117
				c-0.018,0.376-0.096,1.1-0.238,2.179l0.002,1.656l-1.245,10.08l0.005,1.574l-1.749,13.938c0,0.867,0.078,1.484,0.237,1.877
				c-0.002,0.966,0.37,1.731,1.111,2.281v0.017c0,0.153,0.124,0.279,0.279,0.279h0.798c0.285,0.396,0.774,0.694,1.475,0.889
				l1.823,0.347c0.019,0.004,0.034,0.004,0.051,0.004c0.018,0,0.036,0,0.053-0.004l8.932-1.639c0.045-0.007,0.088-0.026,0.122-0.052
				c0.007,0.005,0.012,0.01,0.017,0.014c0.083,0.051,0.183,0.06,0.268,0.018l0.819-0.373h2.449c0.122,0,0.227-0.073,0.267-0.188
				c0.038-0.115,0-0.239-0.096-0.311c-0.094-0.074-0.193-0.132-0.295-0.177l9.981-2.174c0.169,0,0.229,0.023,0.232,0.023l0,0
				c0.063,0.082,0.165,0.122,0.269,0.103l11.101-2.033h1.759c0.093-0.017,0.414-0.088,2.089-0.535
				c1.177-0.313,2.195-0.545,3.015-0.684c0.035-0.006,0.063-0.014,0.093-0.032c1.024-0.58,1.825-1.039,2.405-1.377
				c0.048-0.026,0.088-0.066,0.114-0.112c0.092-0.19,0.201-0.22,0.301-0.22c0.156,0,0.279-0.124,0.279-0.28v-0.896
				c0-0.068-0.026-0.141-0.074-0.19l-0.219-0.232c0.185-0.259,0.348-0.457,0.494-0.588c0.076-0.068,0.11-0.175,0.084-0.276
				c-0.23-0.856-0.282-0.996-0.311-1.062C79.55,76.932,79.453,76.87,79.345,76.87z"/>
		</g>
		<g>
			<path fill="#6B6B6B" d="M115.941,77.932c-0.896-1.483-1.926-3.164-3.089-5.052c-0.019-0.022-0.034-0.046-0.056-0.062
				c-0.789-0.696-1.606-1.05-2.432-1.05c-0.126,0-0.253,0.007-0.372,0.021c-0.634-1.256-0.963-1.763-1.161-1.988
				c0.01-0.053,0.015-0.105,0.015-0.159c0-0.688-0.572-1.282-1.749-1.812c-0.058-0.027-0.122-0.033-0.182-0.017
				c-0.023,0.006-0.092,0.02-0.277,0.02c-0.306,0-0.76-0.027-1.346-0.076c-0.659-0.071-1.092-0.106-1.321-0.106
				c-0.003,0-0.019,0-0.03,0v-0.002l0,0l0,0h-0.002l0,0l0,0h-0.003h-0.002v0.002l0,0l0,0l0,0h-0.002l0,0l0,0l0,0l0,0
				c-0.066,0-0.129,0.023-0.175,0.066c-0.226,0.078-1.028,0.294-3.679,0.932c-2.478,1.08-4.306,1.862-5.49,2.35
				c-2.841,1.95-3.63,2.531-3.873,2.738c-0.646,0.104-1.535,0.786-2.78,2.14c-0.021,0.023-0.037,0.048-0.05,0.076
				c-1.942,4.357-2.166,5.427-2.166,5.849c0,0.96,0.388,2.451,1.179,4.563c0.01,0.024,0.026,0.048,0.04,0.068
				c1.669,2.198,3.933,3.311,6.727,3.311c0.053,0,0.105-0.017,0.148-0.045c0.185-0.073,1.348-0.453,5.767-1.809
				c1.888-0.968,2.279-1.343,2.408-1.56c0.026-0.046,0.042-0.092,0.042-0.146c0-0.104-0.047-0.202-0.177-0.374l6.551-4.912
				c1.155,1.581,1.891,2.706,2.182,3.343c0.018,0.042,0.044,0.074,0.082,0.101c2.157,1.74,2.815,1.849,3.187,1.803
				c0.446,0.294,0.781,0.487,1.026,0.59c0.113,0.049,0.248,0.014,0.328-0.083c0.163-0.199,0.284-0.382,0.372-0.548l0.71,0.121
				c0.103,0.014,0.2-0.023,0.263-0.098c0.828-1.005,1.482-1.797,1.958-2.38c0.058-0.073,0.079-0.168,0.049-0.261
				C118.082,81.943,117.203,80.073,115.941,77.932z M94.331,80.637c1.214-1.152,2.369-2.047,3.4-2.646l2.96-1.189
				c2.079-0.837,2.902-1.014,3.227-1.014h0.538c-0.422,0.338-0.549,0.446-0.604,0.503c-2.042,2.04-4.873,3.542-8.413,4.457
				L94.331,80.637z"/>
		</g>
		<g>
			<path fill="#6B6B6B" d="M172.269,55.256h0.423c0.047,0,0.098-0.012,0.14-0.035c0.036-0.021,0.237-0.102,1.292-0.313
				c0.848-0.186,1.301-0.385,1.475-0.654c0.045-0.069,0.057-0.16,0.027-0.24c0-0.008-0.011-0.033-0.011-0.121
				c0-0.098,0.047-0.277,0.276-0.56c0.314-0.367,0.518-0.627,0.629-0.791c0.031-0.046,0.047-0.1,0.047-0.154l-0.003-0.607
				c-0.019-0.228-0.115-0.668-0.295-1.328c-0.081-0.395-0.127-0.706-0.127-0.92c0-0.068,0.011-0.132,0.034-0.185
				c0.037-0.095,0.021-0.203-0.045-0.282c-1.453-1.772-3.452-3.62-5.993-5.522c-4.659-2.133-7.345-3.17-8.201-3.17
				c-0.175,0-0.362,0.071-0.565,0.214c-0.611-0.156-0.894-0.238-1.025-0.281c-0.053-0.057-0.127-0.092-0.206-0.092
				c0,0-0.014,0-0.024,0.003c-0.039-0.005-0.081,0.003-0.117,0.014c-0.064,0.012-0.156,0.026-0.299,0.055
				c-0.106,0.04-0.186,0.066-0.225,0.083c-1.327-0.479-2.358-0.707-3.143-0.707l-0.348,0.008c-2.952,0.642-4.606,1.034-5.007,1.184
				c-3.079,0.491-5.754,3.223-7.954,8.118c-0.854,1.883-1.562,4.647-2.107,8.213c-0.443,2.973-0.664,5.521-0.664,7.572v3.511
				c0,0.052,0,0.091,0.271,1.217c0.222,0.91,0.253,1.081,0.256,1.087v1.641l-0.026,0.024c-0.748-0.05-1.406,0.021-2.01,0.269
				c-0.34-0.147-0.802-0.129-1.348,0.042c-0.465,0.126-0.839,0.233-1.121,0.317c-0.053,0.019-0.103,0.05-0.137,0.097
				c-1.679,2.15-2.492,3.71-2.492,4.771c0,2.403,1.386,3.018,2.594,3.103c0.494,0.43,1.33,0.639,2.549,0.639h2.406
				c0.05,0,0.115,0,1.163-0.277c0.805-0.246,0.963-0.275,0.976-0.277h0.618c1.068,1.594,1.915,2.82,2.514,3.639
				c0.013,0.02,0.031,0.04,0.05,0.052c1.76,1.378,3.109,2.575,4.013,3.562c0.065,0.077,0.171,0.111,0.269,0.088l0.523-0.128
				c0.176,0.006,0.543,0.059,1.297,0.256c0.023,0.009,0.049,0.012,0.072,0.012c0.061,0,0.121-0.021,0.171-0.06
				c0.068-0.052,0.108-0.133,0.108-0.221c0-0.229,0.063-0.349,0.116-0.408h1.374c0.156,0,0.279-0.125,0.279-0.279v-0.315
				l1.684-0.975c0.086-0.051,0.141-0.144,0.141-0.241v-0.422c0-0.1-0.051-0.188-0.128-0.237c-0.079-0.27-0.255-1.002-0.644-2.938
				c-0.008-0.024-0.016-0.051-0.029-0.077c-0.669-1.261-1.247-2.245-1.72-2.937c0.33-0.269,0.431-0.306,0.431-0.306
				c2.451-0.572,4.252-1.016,5.502-1.351c0.032-0.009,0.066-0.023,0.094-0.042c1.109-0.804,1.982-1.287,2.595-1.438
				c0.071-0.015,0.132-0.06,0.172-0.121c0.271-0.429,0.604-0.754,0.981-0.96c0.124-0.068,0.179-0.221,0.121-0.355
				c-0.048-0.11-0.056-0.178-0.056-0.207c0-0.128,0.051-0.256,0.15-0.379c0.068-0.082,0.082-0.201,0.034-0.296
				c-0.045-0.098-0.146-0.161-0.25-0.161c-0.04,0-0.121-0.016-0.251-0.109v-0.148c0.261-0.245,0.329-0.347,0.367-0.419
				c0.05-0.104,0.036-0.225-0.04-0.31c-0.656-0.752-1.219-1.129-1.721-1.153c-0.197-0.227-0.342-0.399-0.435-0.521
				c-0.034-0.051-0.087-0.085-0.143-0.097c-0.496-0.148-0.881-0.239-1.227-0.278L150.439,71c-0.147,0-0.293-0.055-0.44-0.171
				l-0.364-4.693c-0.031-0.486-0.051-0.856-0.051-1.115c0-4.808,0.521-9.296,1.541-13.352c0.786-1.501,0.966-1.772,0.997-1.812
				c0.615-0.647,1.235-1.138,1.847-1.453c1.813-0.339,2.586-0.486,2.918-0.601c1.229,0.011,2.946,0.37,5.109,1.069
				c2.188,0.71,3.771,1.436,4.715,2.15c0.047,0.037,0.105,0.058,0.166,0.058c0.552,0,1.266,0.346,2.123,1.022
				c1.066,0.837,1.338,1.386,1.381,1.694c0.018,0.137,0.182,0.245,0.321,0.245c0.048,0.006,0.327,0.09,1.37,1.13
				C172.124,55.228,172.195,55.256,172.269,55.256z"/>
		</g>
		<g>
			<path fill="#6B6B6B" d="M203.648,72.697c-1.166-2.53-1.912-3.969-2.289-4.401c-0.019-0.021-0.043-0.038-0.07-0.055
				c-0.917-0.544-1.669-1.079-2.238-1.601v-0.407c0-0.092-0.051-0.185-0.129-0.236c-3.676-2.339-6.102-3.478-7.418-3.478h-0.059
				c-0.73-0.264-1.396-0.396-1.977-0.396h-5.102c-0.783,0-1.701,0.174-2.725,0.514l-1.488,0.463
				c-0.047-0.006-0.074-0.014-0.08-0.025c-0.086-0.086-0.221-0.107-0.334-0.046c-0.336,0.188-0.615,0.34-0.842,0.458
				c-0.841,0.224-1.464,0.402-1.854,0.525c-0.021,0.008-0.046,0.016-0.069,0.031c-2.435,1.543-3.801,2.784-4.188,3.821
				c-0.103,0.444-0.315,1.196-0.628,2.222c-0.306,1.001-0.477,1.549-0.525,1.679c-0.013,0.029-0.018,0.063-0.018,0.098l0.002,3.885
				l-0.24,2.509c0,1.17,0.297,2.83,0.881,4.94c0.008,0.023,0.016,0.045,0.03,0.064c0.59,1.009,1.015,1.775,1.259,2.279
				c0.014,0.037,0.039,0.064,0.07,0.091c1.762,1.516,3.163,2.585,4.16,3.173c0.024,0.014,0.043,0.024,0.066,0.028
				c2.41,0.684,3.827,1.014,4.332,1.014c0.263,0.161,0.511,0.239,0.74,0.239h1.768c2.121,0,5.237-0.698,9.262-2.076
				c0.022-0.008,0.039-0.015,0.062-0.028c1.678-1.058,3.529-2.242,5.497-3.517c0.024-0.013,0.045-0.032,0.061-0.052
				c1.254-1.483,2.214-2.643,2.857-3.442c0.023-0.026,0.04-0.057,0.048-0.092c0.166-0.5,0.263-0.828,0.309-1.011
				c0.823-0.988,1.239-2.181,1.239-3.539c0-1.1-0.119-2.298-0.348-3.565C203.667,72.74,203.659,72.718,203.648,72.697z
				 M180.719,74.381c-0.01-0.015-0.051-0.088-0.189-0.41c0.308-0.285,0.398-0.41,0.443-0.501c0.033-0.077,0.035-0.163,0.002-0.242
				c-0.178-0.391-0.211-0.597-0.211-0.703v-0.87l0.18-0.279l6.342-1.217l2.901-0.104h0.443c1.161,0,1.907,0.227,2.166,0.656
				c0.05,0.088,0.142,0.138,0.24,0.138h0.315c0.09,0,0.183-0.029,0.309-0.101c0.043-0.022,0.066-0.029,0.066-0.029
				c1.074,0,2.295,1.095,3.631,3.258v0.609c0,0.474-0.409,1.095-1.183,1.806c-0.696,0.661-2.079,1.408-4.112,2.215l-4.237,1.676
				c-0.44,0.017-1.644,0.206-3.616,0.578c-0.892,0-1.952-0.254-3.155-0.758c-1.157-0.483-2.002-1.016-2.506-1.577
				c-0.048-0.234-0.085-0.394-0.108-0.481c0.017-0.106,0.124-0.458,0.73-1.529c0.445-0.822,0.615-1.124,0.682-1.23
				c0.219-0.104,0.484-0.278,0.804-0.532C180.766,74.665,180.793,74.499,180.719,74.381z"/>
		</g>
		<g>
			<path fill="#6B6B6B" d="M219.16,73.577c-1.078-1.167-1.855-2.03-2.369-2.634c-0.016-0.022-0.036-0.04-0.059-0.051
				c-0.422-0.282-0.752-0.428-1.088-0.411l-1.428,0.316c-0.098,0.021-0.177,0.095-0.207,0.192c-0.125,0.425-0.419,0.844-0.869,1.245
				c-0.043,0.04-0.074,0.092-0.085,0.152l-0.668,3.192l-0.157,4.723c-0.021,0.269-0.029,0.521-0.029,0.756
				c0,0.705,0.045,1.29,0.14,1.745c0.48,2.556,1.05,4.392,1.699,5.457c0.036,0.062,0.098,0.108,0.172,0.128
				c1.722,0.43,2.06,0.572,2.12,0.612c0.093,0.07,0.219,0.076,0.316,0.012c0.129-0.081,0.256-0.147,0.375-0.194
				c0.179,0.097,0.327,0.171,0.459,0.219c0.034,0.016,0.068,0.021,0.1,0.021c0.056,0,0.108-0.018,0.152-0.048
				c0.176-0.115,0.328-0.226,0.468-0.329l0.454,0.104c0.135,0.029,0.269-0.04,0.319-0.165l0.82-1.953
				c0.013-0.034,0.021-0.071,0.021-0.109v-2.722c0-0.952,0.017-1.726,0.054-2.358c0.034-0.488,0.077-0.932,0.129-1.332
				c0.011-0.074,0.019-0.138,0.026-0.186c0.034-0.048,0.056-0.103,0.056-0.166l0.026-3.305c0-0.84-0.306-1.8-0.908-2.859
				C219.189,73.609,219.176,73.592,219.16,73.577z"/>
		</g>
		<g>
			<path fill="#6B6B6B" d="M221.568,59.718c-0.076-0.125-0.245-0.481-0.607-1.506c-0.227-0.628-0.592-1.037-1.086-1.225
				c-0.662-0.949-1.261-1.577-1.839-1.907c-0.04-0.023-0.088-0.04-0.137-0.04h-1.665c-0.076,0-0.148,0.033-0.199,0.082
				c-0.51,0.513-0.713,0.629-0.776,0.655c-0.099,0.036-0.164,0.128-0.177,0.233l-0.264,2.958c0,0.009,0,0.071,0,0.077
				c0,0.242,0.103,0.804,1.002,2.886c0.037,0.093,0.119,0.152,0.215,0.166c0.93,0.138,1.771,0.403,2.5,0.789
				c0.045,0.026,0.094,0.036,0.143,0.036c0.071,0,0.137-0.026,0.188-0.09c0.005-0.003,0.076-0.045,0.355-0.045
				c0.223,0,0.301,0.03,0.319,0.04c0.084,0.093,0.217,0.116,0.33,0.065c0.844-0.402,1.335-0.749,1.544-1.083
				c0.025-0.045,0.041-0.097,0.041-0.145c0-0.376-0.076-0.772-0.224-1.186c0.153-0.18,0.269-0.336,0.345-0.48
				C221.627,59.912,221.627,59.803,221.568,59.718z"/>
		</g>
	</g>
</g>
</svg>
